<?xml version="1.0" encoding="UTF-8"?>
<svg width="700pt" height="700pt" version="1.1" viewBox="0 0 700 700" xmlns="http://www.w3.org/2000/svg">
 <path d="m430.01 305.11c-3.8047-2.7695-8.5586-3.8906-13.199-3.1133-4.6367 0.77734-8.7656 3.3906-11.457 7.2461-2.6914 3.8594-3.7188 8.6367-2.8438 13.258 0.87109 4.6211 3.5664 8.6953 7.4766 11.309 26.91 18.652 43.59 48.781 45.117 81.492 1.5234 32.707-12.285 64.254-37.344 85.328-25.059 21.078-58.512 29.27-90.473 22.16-31.961-7.1133-58.785-28.711-72.547-58.422-13.762-29.711-12.891-64.137 2.3516-93.113 15.246-28.98 43.125-49.195 75.406-54.684v103.43c0 6.2539 3.3359 12.031 8.75 15.156s12.086 3.125 17.5 0 8.75-8.9023 8.75-15.156v-385h70c6.2539 0 12.031-3.3359 15.156-8.75s3.125-12.086 0-17.5-8.9023-8.75-15.156-8.75h-175c-6.2539 0-12.031 3.3359-15.156 8.75s-3.125 12.086 0 17.5 8.9023 8.75 15.156 8.75h70v246.21c-43.527 5.5508-81.926 31.219-103.7 69.316-21.773 38.102-24.395 84.211-7.0781 124.53 17.312 40.324 52.555 70.176 95.176 80.625 42.617 10.445 87.672 0.27734 121.67-27.461 34-27.742 53.004-69.836 51.32-113.69-1.6836-43.848-23.855-84.363-59.879-109.42z"/>
</svg>
