<?xml version="1.0" encoding="UTF-8"?>
<!DOCTYPE svg PUBLIC "-//W3C//DTD SVG 1.1//EN" "http://www.w3.org/Graphics/SVG/1.1/DTD/svg11.dtd">
<!-- Creator: CorelDRAW 2018 (64 Bit) -->
<svg xmlns="http://www.w3.org/2000/svg" xml:space="preserve" width="129.822mm" height="129.822mm" version="1.1" style="shape-rendering:geometricPrecision; text-rendering:geometricPrecision; image-rendering:optimizeQuality; fill-rule:evenodd; clip-rule:evenodd"
     viewBox="0 0 90.746 90.746"
     xmlns:xlink="http://www.w3.org/1999/xlink">
 <defs>
  <style type="text/css">
   <![CDATA[
    .fil0 {fill:none}
    .fil2 {fill:white}
    .fil1 {fill:white;fill-rule:nonzero}
   ]]>
  </style>
 </defs>
 <g id="Camada_x0020_1">
  <metadata id="CorelCorpID_0Corel-Layer"/>
  <path class="fil0" d="M45.373 0c25.0588,0 45.373,20.3142 45.373,45.373 0,25.0588 -20.3142,45.373 -45.373,45.373 -25.0588,0 -45.373,-20.3142 -45.373,-45.373 0,-25.0588 20.3142,-45.373 45.373,-45.373z"/>
  <g id="_2782679152064">
   <path class="fil1" d="M36.2133 21.1146l-1.1879 -2.5673 -1.9053 0c-0.4822,0 -0.8731,-0.3909 -0.8731,-0.8731 0,-0.4822 0.3909,-0.8731 0.8731,-0.8731l5.1045 0.002c0.4822,0 0.8731,0.3909 0.8731,0.8731 0,0.4822 -0.6222,0.8731 -0.8731,0.8731 -0.2533,0 -0.8308,-0.002 -1.2755,-0.002l0.9696 2.096 -1.4013 0 -0.3042 0.4713z"/>
   <path class="fil1" d="M49.6459 20.6434l-3.4033 -5.2714 -2.8389 0c-0.4822,0 -0.8731,-0.3909 -0.8731,-0.8731 0,-0.4822 0.3909,-0.8731 0.8731,-0.8731l3.789 0.0014 4.5304 7.0161 -2.0772 0z"/>
   <path class="fil1" d="M49.1245 23.0815l-9.3139 -0.0001 -0.8077 -1.7462c3.4814,0.0002 6.965,0.0011 10.4474,0.0016l0 0.0001 0.466 0 0.1774 0 0.1855 0 -1.1548 1.7446z"/>
   <path class="fil1" d="M15.8083 22.1921c0,-0.4723 0.3828,-0.8552 0.8552,-0.8552 0.4723,0 0.8552,0.3828 0.8552,0.8552l0.0001 8.7242c0,1.6872 1.7654,3.0551 3.9431,3.0551 2.1777,0 3.9431,-1.3679 3.9431,-3.0551l0.0001 -8.7242c0,-0.4723 0.3828,-0.8552 0.8552,-0.8552 0.4723,0 0.8552,0.3828 0.8552,0.8552l-0.0001 8.7242c0,2.419 -2.5312,4.3804 -5.6535,4.3804 -3.1223,0 -5.6535,-1.9613 -5.6535,-4.3804l0 -8.7242z"/>
   <path class="fil1" d="M30.2198 34.8971c-0.2615,0.4051 -0.8019,0.5215 -1.207,0.26 -0.4051,-0.2615 -0.5215,-0.8019 -0.26,-1.207l0.4087 -0.6331 6.11 -9.4649c0.2616,-0.4051 0.802,-0.5215 1.207,-0.26 0.4051,0.2616 0.5215,0.8019 0.2599,1.207 -1.5525,2.4051 -4.9661,7.693 -6.5187,10.098z"/>
   <path class="fil1" d="M58.8481 34.897c0.2615,0.4051 0.8019,0.5215 1.207,0.26 0.4051,-0.2615 0.5215,-0.8019 0.26,-1.207l-0.4087 -0.6331 -7.4739 -11.5778c-0.2616,-0.4051 -0.802,-0.5215 -1.207,-0.26 -0.4051,0.2616 -0.5215,0.8019 -0.2599,1.2069 1.5525,2.4051 6.33,9.806 7.8826,12.2109z"/>
   <path class="fil1" d="M42.5409 34.7898c0.2024,0.4376 0.7213,0.6283 1.159,0.4258 0.4374,-0.2024 0.6282,-0.7212 0.4258,-1.1589l-0.3164 -0.6839 -5.3394 -11.5238c-0.2026,-0.4377 -0.7214,-0.6284 -1.1589,-0.4259 -0.4375,0.2025 -0.6282,0.7214 -0.4258,1.1589 0.9832,2.1255 3.6623,7.8987 4.9742,10.7346 0.2916,0.6304 0.4629,1.0006 0.6815,1.4731z"/>
   <path class="fil1" d="M45.7586 32.5873c-0.2661,0.4021 -0.8078,0.5123 -1.21,0.2461 -0.402,-0.2661 -0.5122,-0.8078 -0.246,-1.2099l0.4159 -0.6283 4.7304 -7.1472c0.2661,-0.4021 0.8079,-0.5123 1.21,-0.2461 0.4021,0.2662 0.5122,0.8078 0.246,1.2099 -1.58,2.3871 -3.5664,5.3885 -5.1463,7.7756z"/>
   <path class="fil1" d="M72.1228 31.8086l-6.0095 -0.001 -1.1966 2.9547c-0.1773,0.4378 -0.6758,0.649 -1.1136,0.4716 -0.4378,-0.1773 -0.649,-0.6759 -0.4716,-1.1137 1.6535,-4.0829 3.3074,-8.1658 4.9605,-12.2489 0.1391,-0.3434 0.4748,-0.5337 0.8258,-0.5337 0.351,0 0.6867,0.1903 0.8258,0.5337 1.6531,4.0831 3.307,8.166 4.9605,12.2489 0.1773,0.4378 -0.0338,0.9364 -0.4716,1.1137 -0.4378,0.1773 -0.9363,-0.0338 -1.1136,-0.4716l-1.1961 -2.9536zm-5.3173 -1.7104l4.6246 0.0001 -2.3123 -5.7097 -2.3123 5.7097z"/>
   <path class="fil2" d="M74.9669 63.9793c0,0.6088 -0.4935,1.1023 -1.1023,1.1023 -0.6088,0 -1.1023,-0.4935 -1.1023,-1.1023l0 -23.4744c0,-0.6088 0.4935,-1.1023 1.1023,-1.1023 0.6088,0 1.1023,0.4935 1.1023,1.1023l0 23.4744z"/>
   <path class="fil2" d="M42.8773 63.9793c0,0.6088 -0.4935,1.1023 -1.1023,1.1023 -0.6088,0 -1.1023,-0.4935 -1.1023,-1.1023l0 -23.4744c0,-0.6088 0.4935,-1.1023 1.1023,-1.1023 0.6088,0 1.1023,0.4935 1.1023,1.1023l0 23.4744z"/>
   <path class="fil2" d="M16.8814 65.0816c-0.6088,0 -1.1023,-0.4935 -1.1023,-1.1023l0 -23.4744c0,-0.6088 0.4935,-1.1023 1.1023,-1.1023l0.0146 0.0002 0.0145 -0.0002 9.9693 0c3.439,0 6.2269,2.7879 6.2269,6.2269 0,1.8972 -0.8487,3.5958 -2.1868,4.738 2.6376,1.2262 4.4666,3.8989 4.4666,6.9992 0,4.2608 -3.4541,7.715 -7.715,7.715l-10.7903 0zm1.1023 -23.4744l0 8.0445 8.9016 0c2.2189,-0.0029 4.0168,-1.8026 4.0168,-4.0222 0,-2.2214 -1.8008,-4.0223 -4.0223,-4.0223l-8.8961 0zm8.9017 10.2491l-0.0055 0.0001 0 -0.0001 -8.8961 0 0 11.0206 9.688 0c3.0432,0 5.5103,-2.4671 5.5103,-5.5103 0,-3.0432 -2.4671,-5.5103 -5.5103,-5.5103l-0.7863 0z"/>
   <path class="fil2" d="M49.5618 52.2422c0,5.8734 4.2572,10.6348 9.5087,10.6348 2.5128,0 4.7974,-1.0905 6.4973,-2.8709l0 0.0017c0.1995,-0.1995 0.475,-0.3229 0.7795,-0.3229 0.6088,0.0001 1.1024,0.4934 1.1023,1.1023 0,0.3323 -0.147,0.6302 -0.3795,0.8323 -2.0935,2.1472 -4.9063,3.4622 -7.9995,3.4622 -6.4688,0.0001 -11.7127,-5.7484 -11.7127,-12.8394 0,-7.091 5.2439,-12.8395 11.7127,-12.8394 3.0932,0 5.9059,1.315 7.9995,3.4622 0.2325,0.2022 0.3795,0.5 0.3795,0.8323 0.0001,0.6089 -0.4934,1.1023 -1.1023,1.1023 -0.3044,0 -0.58,-0.1234 -0.7795,-0.3229l0 0.0017c-1.6999,-1.7804 -3.9845,-2.8709 -6.4973,-2.8709 -5.2515,0 -9.5087,4.7613 -9.5087,10.6348z"/>
  </g>
 </g>
</svg>
